<mxfile host="app.diagrams.net" agent="Mozilla/5.0 (Windows NT 10.0; Win64; x64) AppleWebKit/537.36 (KHTML, like Gecko) Chrome/130.0.0.0 Safari/537.36" version="24.8.0">
  <diagram name="Seite-1" id="gtJFlXaaIzvjSY3m4rX6">
    <mxGraphModel dx="1859" dy="494" grid="1" gridSize="10" guides="1" tooltips="1" connect="1" arrows="1" fold="1" page="1" pageScale="1" pageWidth="827" pageHeight="1169" math="0" shadow="0">
      <root>
        <mxCell id="0" />
        <mxCell id="1" parent="0" />
        <mxCell id="xlPOFBCF7ndjpaGlJcxO-2" value="UMOC Login" style="swimlane;childLayout=stackLayout;resizeParent=1;resizeParentMax=0;startSize=20;html=1;" vertex="1" parent="1">
          <mxGeometry x="-239.99999999999955" y="30" width="279.99999999999955" height="480" as="geometry" />
        </mxCell>
        <mxCell id="xlPOFBCF7ndjpaGlJcxO-3" value="Client" style="swimlane;startSize=20;html=1;" vertex="1" parent="xlPOFBCF7ndjpaGlJcxO-2">
          <mxGeometry y="20" width="159.99999999999955" height="460" as="geometry" />
        </mxCell>
        <mxCell id="xlPOFBCF7ndjpaGlJcxO-12" value="Login" style="rounded=1;arcSize=10;whiteSpace=wrap;html=1;align=center;" vertex="1" parent="xlPOFBCF7ndjpaGlJcxO-3">
          <mxGeometry x="30" y="90" width="60" height="30" as="geometry" />
        </mxCell>
        <mxCell id="xlPOFBCF7ndjpaGlJcxO-15" style="edgeStyle=orthogonalEdgeStyle;rounded=0;orthogonalLoop=1;jettySize=auto;html=1;exitX=0.5;exitY=1;exitDx=0;exitDy=0;entryX=0.5;entryY=0;entryDx=0;entryDy=0;" edge="1" parent="xlPOFBCF7ndjpaGlJcxO-3" source="xlPOFBCF7ndjpaGlJcxO-13" target="xlPOFBCF7ndjpaGlJcxO-12">
          <mxGeometry relative="1" as="geometry" />
        </mxCell>
        <mxCell id="xlPOFBCF7ndjpaGlJcxO-13" value="" style="ellipse;html=1;shape=startState;fillColor=#000000;strokeColor=#ff0000;" vertex="1" parent="xlPOFBCF7ndjpaGlJcxO-3">
          <mxGeometry x="50" y="20" width="20" height="20" as="geometry" />
        </mxCell>
        <mxCell id="xlPOFBCF7ndjpaGlJcxO-21" value="Fehler Angeben" style="rounded=1;whiteSpace=wrap;html=1;" vertex="1" parent="xlPOFBCF7ndjpaGlJcxO-3">
          <mxGeometry x="30" y="150" width="80" height="40" as="geometry" />
        </mxCell>
        <mxCell id="xlPOFBCF7ndjpaGlJcxO-22" value="Nein" style="text;html=1;align=center;verticalAlign=middle;resizable=0;points=[];autosize=1;strokeColor=none;fillColor=none;" vertex="1" parent="xlPOFBCF7ndjpaGlJcxO-3">
          <mxGeometry x="109.99999999999955" y="150" width="50" height="30" as="geometry" />
        </mxCell>
        <mxCell id="xlPOFBCF7ndjpaGlJcxO-30" value="Session ID in Cookies hinterlegen" style="rounded=1;whiteSpace=wrap;html=1;" vertex="1" parent="xlPOFBCF7ndjpaGlJcxO-3">
          <mxGeometry x="40" y="300" width="80" height="50" as="geometry" />
        </mxCell>
        <mxCell id="xlPOFBCF7ndjpaGlJcxO-4" value="Server" style="swimlane;startSize=20;html=1;" vertex="1" parent="xlPOFBCF7ndjpaGlJcxO-2">
          <mxGeometry x="159.99999999999955" y="20" width="120" height="460" as="geometry" />
        </mxCell>
        <mxCell id="xlPOFBCF7ndjpaGlJcxO-19" style="edgeStyle=orthogonalEdgeStyle;rounded=0;orthogonalLoop=1;jettySize=auto;html=1;exitX=0.5;exitY=1;exitDx=0;exitDy=0;entryX=0.5;entryY=0;entryDx=0;entryDy=0;" edge="1" parent="xlPOFBCF7ndjpaGlJcxO-4" source="xlPOFBCF7ndjpaGlJcxO-16" target="xlPOFBCF7ndjpaGlJcxO-18">
          <mxGeometry relative="1" as="geometry" />
        </mxCell>
        <mxCell id="xlPOFBCF7ndjpaGlJcxO-16" value="Passwort und Username Überprüfen" style="rounded=1;arcSize=10;whiteSpace=wrap;html=1;align=center;" vertex="1" parent="xlPOFBCF7ndjpaGlJcxO-4">
          <mxGeometry x="19.999999999999545" y="80" width="80" height="50" as="geometry" />
        </mxCell>
        <mxCell id="xlPOFBCF7ndjpaGlJcxO-26" style="edgeStyle=orthogonalEdgeStyle;rounded=0;orthogonalLoop=1;jettySize=auto;html=1;exitX=0.5;exitY=1;exitDx=0;exitDy=0;entryX=0.5;entryY=0;entryDx=0;entryDy=0;" edge="1" parent="xlPOFBCF7ndjpaGlJcxO-4" source="xlPOFBCF7ndjpaGlJcxO-18" target="xlPOFBCF7ndjpaGlJcxO-25">
          <mxGeometry relative="1" as="geometry" />
        </mxCell>
        <mxCell id="xlPOFBCF7ndjpaGlJcxO-18" value="Ist richtig?" style="shape=rhombus;double=1;perimeter=rhombusPerimeter;whiteSpace=wrap;html=1;align=center;" vertex="1" parent="xlPOFBCF7ndjpaGlJcxO-4">
          <mxGeometry x="20" y="150" width="80" height="50" as="geometry" />
        </mxCell>
        <mxCell id="xlPOFBCF7ndjpaGlJcxO-29" style="edgeStyle=orthogonalEdgeStyle;rounded=0;orthogonalLoop=1;jettySize=auto;html=1;exitX=0.5;exitY=1;exitDx=0;exitDy=0;entryX=0.5;entryY=0;entryDx=0;entryDy=0;" edge="1" parent="xlPOFBCF7ndjpaGlJcxO-4" source="xlPOFBCF7ndjpaGlJcxO-25" target="xlPOFBCF7ndjpaGlJcxO-28">
          <mxGeometry relative="1" as="geometry" />
        </mxCell>
        <mxCell id="xlPOFBCF7ndjpaGlJcxO-25" value="Session ID erzeugen" style="rounded=1;whiteSpace=wrap;html=1;" vertex="1" parent="xlPOFBCF7ndjpaGlJcxO-4">
          <mxGeometry x="20.000000000000455" y="230" width="80" height="40" as="geometry" />
        </mxCell>
        <mxCell id="xlPOFBCF7ndjpaGlJcxO-28" value="Session ID Speichern" style="rounded=1;whiteSpace=wrap;html=1;" vertex="1" parent="xlPOFBCF7ndjpaGlJcxO-4">
          <mxGeometry x="20.000000000000455" y="300" width="80" height="40" as="geometry" />
        </mxCell>
        <mxCell id="xlPOFBCF7ndjpaGlJcxO-17" style="edgeStyle=orthogonalEdgeStyle;rounded=0;orthogonalLoop=1;jettySize=auto;html=1;exitX=1;exitY=0.5;exitDx=0;exitDy=0;entryX=0;entryY=0.5;entryDx=0;entryDy=0;" edge="1" parent="xlPOFBCF7ndjpaGlJcxO-2" source="xlPOFBCF7ndjpaGlJcxO-12" target="xlPOFBCF7ndjpaGlJcxO-16">
          <mxGeometry relative="1" as="geometry" />
        </mxCell>
        <mxCell id="xlPOFBCF7ndjpaGlJcxO-20" style="edgeStyle=orthogonalEdgeStyle;rounded=0;orthogonalLoop=1;jettySize=auto;html=1;exitX=0;exitY=0.5;exitDx=0;exitDy=0;entryX=0.981;entryY=0.65;entryDx=0;entryDy=0;entryPerimeter=0;" edge="1" parent="xlPOFBCF7ndjpaGlJcxO-2" source="xlPOFBCF7ndjpaGlJcxO-18" target="xlPOFBCF7ndjpaGlJcxO-21">
          <mxGeometry relative="1" as="geometry">
            <mxPoint x="119.99999999999909" y="194.91891891891885" as="targetPoint" />
          </mxGeometry>
        </mxCell>
        <mxCell id="xlPOFBCF7ndjpaGlJcxO-31" style="edgeStyle=orthogonalEdgeStyle;rounded=0;orthogonalLoop=1;jettySize=auto;html=1;exitX=0;exitY=0.5;exitDx=0;exitDy=0;entryX=1.034;entryY=0.417;entryDx=0;entryDy=0;entryPerimeter=0;" edge="1" parent="xlPOFBCF7ndjpaGlJcxO-2" source="xlPOFBCF7ndjpaGlJcxO-28" target="xlPOFBCF7ndjpaGlJcxO-30">
          <mxGeometry relative="1" as="geometry" />
        </mxCell>
        <mxCell id="xlPOFBCF7ndjpaGlJcxO-6" value="Nachricht senden" style="swimlane;childLayout=stackLayout;resizeParent=1;resizeParentMax=0;startSize=20;html=1;" vertex="1" parent="1">
          <mxGeometry x="90.00000000000045" y="30" width="360" height="480" as="geometry" />
        </mxCell>
        <mxCell id="xlPOFBCF7ndjpaGlJcxO-7" value="Client" style="swimlane;startSize=20;html=1;" vertex="1" parent="xlPOFBCF7ndjpaGlJcxO-6">
          <mxGeometry y="20" width="120" height="460" as="geometry" />
        </mxCell>
        <mxCell id="xlPOFBCF7ndjpaGlJcxO-37" style="edgeStyle=orthogonalEdgeStyle;rounded=0;orthogonalLoop=1;jettySize=auto;html=1;exitX=0.5;exitY=1;exitDx=0;exitDy=0;entryX=0.5;entryY=0;entryDx=0;entryDy=0;" edge="1" parent="xlPOFBCF7ndjpaGlJcxO-7" source="xlPOFBCF7ndjpaGlJcxO-32" target="xlPOFBCF7ndjpaGlJcxO-36">
          <mxGeometry relative="1" as="geometry" />
        </mxCell>
        <mxCell id="xlPOFBCF7ndjpaGlJcxO-32" value="Nachricht Senden" style="rounded=1;arcSize=10;whiteSpace=wrap;html=1;align=center;" vertex="1" parent="xlPOFBCF7ndjpaGlJcxO-7">
          <mxGeometry x="30" y="100" width="60" height="30" as="geometry" />
        </mxCell>
        <mxCell id="xlPOFBCF7ndjpaGlJcxO-33" style="edgeStyle=orthogonalEdgeStyle;rounded=0;orthogonalLoop=1;jettySize=auto;html=1;exitX=0.5;exitY=1;exitDx=0;exitDy=0;entryX=0.5;entryY=0;entryDx=0;entryDy=0;" edge="1" parent="xlPOFBCF7ndjpaGlJcxO-7" source="xlPOFBCF7ndjpaGlJcxO-34" target="xlPOFBCF7ndjpaGlJcxO-32">
          <mxGeometry relative="1" as="geometry" />
        </mxCell>
        <mxCell id="xlPOFBCF7ndjpaGlJcxO-34" value="" style="ellipse;html=1;shape=startState;fillColor=#000000;strokeColor=#ff0000;" vertex="1" parent="xlPOFBCF7ndjpaGlJcxO-7">
          <mxGeometry x="50" y="30" width="20" height="20" as="geometry" />
        </mxCell>
        <mxCell id="xlPOFBCF7ndjpaGlJcxO-36" value="Verschlüsseln" style="rounded=1;arcSize=10;whiteSpace=wrap;html=1;align=center;" vertex="1" parent="xlPOFBCF7ndjpaGlJcxO-7">
          <mxGeometry x="19.99999999999909" y="150" width="80" height="50" as="geometry" />
        </mxCell>
        <mxCell id="xlPOFBCF7ndjpaGlJcxO-8" value="Server" style="swimlane;startSize=20;html=1;" vertex="1" parent="xlPOFBCF7ndjpaGlJcxO-6">
          <mxGeometry x="120" y="20" width="120" height="460" as="geometry" />
        </mxCell>
        <mxCell id="xlPOFBCF7ndjpaGlJcxO-41" style="edgeStyle=orthogonalEdgeStyle;rounded=0;orthogonalLoop=1;jettySize=auto;html=1;exitX=0.5;exitY=1;exitDx=0;exitDy=0;entryX=0.5;entryY=0;entryDx=0;entryDy=0;" edge="1" parent="xlPOFBCF7ndjpaGlJcxO-8" source="xlPOFBCF7ndjpaGlJcxO-38" target="xlPOFBCF7ndjpaGlJcxO-40">
          <mxGeometry relative="1" as="geometry" />
        </mxCell>
        <mxCell id="xlPOFBCF7ndjpaGlJcxO-38" value="Nachricht in DB Speichern" style="rounded=1;arcSize=10;whiteSpace=wrap;html=1;align=center;" vertex="1" parent="xlPOFBCF7ndjpaGlJcxO-8">
          <mxGeometry x="19.99999999999909" y="150" width="80" height="50" as="geometry" />
        </mxCell>
        <mxCell id="xlPOFBCF7ndjpaGlJcxO-40" value="Websocket aktualisieren" style="rounded=1;arcSize=10;whiteSpace=wrap;html=1;align=center;" vertex="1" parent="xlPOFBCF7ndjpaGlJcxO-8">
          <mxGeometry x="19.99999999999909" y="220" width="80" height="50" as="geometry" />
        </mxCell>
        <mxCell id="xlPOFBCF7ndjpaGlJcxO-35" value="Client 2" style="swimlane;startSize=20;html=1;" vertex="1" parent="xlPOFBCF7ndjpaGlJcxO-6">
          <mxGeometry x="240" y="20" width="120" height="460" as="geometry" />
        </mxCell>
        <mxCell id="xlPOFBCF7ndjpaGlJcxO-49" style="edgeStyle=orthogonalEdgeStyle;rounded=0;orthogonalLoop=1;jettySize=auto;html=1;exitX=0.5;exitY=1;exitDx=0;exitDy=0;entryX=0.5;entryY=0;entryDx=0;entryDy=0;" edge="1" parent="xlPOFBCF7ndjpaGlJcxO-35" source="xlPOFBCF7ndjpaGlJcxO-46" target="xlPOFBCF7ndjpaGlJcxO-47">
          <mxGeometry relative="1" as="geometry" />
        </mxCell>
        <mxCell id="xlPOFBCF7ndjpaGlJcxO-46" value="Nachricht entschlüsseln" style="rounded=1;arcSize=10;whiteSpace=wrap;html=1;align=center;" vertex="1" parent="xlPOFBCF7ndjpaGlJcxO-35">
          <mxGeometry x="19.99999999999909" y="220" width="80" height="50" as="geometry" />
        </mxCell>
        <mxCell id="xlPOFBCF7ndjpaGlJcxO-47" value="Nachricht anzeigen" style="rounded=1;arcSize=10;whiteSpace=wrap;html=1;align=center;" vertex="1" parent="xlPOFBCF7ndjpaGlJcxO-35">
          <mxGeometry x="19.99999999999909" y="290" width="80" height="50" as="geometry" />
        </mxCell>
        <mxCell id="xlPOFBCF7ndjpaGlJcxO-39" style="edgeStyle=orthogonalEdgeStyle;rounded=0;orthogonalLoop=1;jettySize=auto;html=1;exitX=1;exitY=0.5;exitDx=0;exitDy=0;entryX=0;entryY=0.5;entryDx=0;entryDy=0;" edge="1" parent="xlPOFBCF7ndjpaGlJcxO-6" source="xlPOFBCF7ndjpaGlJcxO-36" target="xlPOFBCF7ndjpaGlJcxO-38">
          <mxGeometry relative="1" as="geometry" />
        </mxCell>
        <mxCell id="xlPOFBCF7ndjpaGlJcxO-48" style="edgeStyle=orthogonalEdgeStyle;rounded=0;orthogonalLoop=1;jettySize=auto;html=1;exitX=1;exitY=0.5;exitDx=0;exitDy=0;entryX=0;entryY=0.5;entryDx=0;entryDy=0;" edge="1" parent="xlPOFBCF7ndjpaGlJcxO-6" source="xlPOFBCF7ndjpaGlJcxO-40" target="xlPOFBCF7ndjpaGlJcxO-46">
          <mxGeometry relative="1" as="geometry" />
        </mxCell>
        <mxCell id="xlPOFBCF7ndjpaGlJcxO-9" value="Passwort ändern" style="swimlane;childLayout=stackLayout;resizeParent=1;resizeParentMax=0;startSize=20;html=1;" vertex="1" parent="1">
          <mxGeometry x="550.0000000000005" y="30" width="240" height="480" as="geometry" />
        </mxCell>
        <mxCell id="xlPOFBCF7ndjpaGlJcxO-10" value="Client" style="swimlane;startSize=20;html=1;" vertex="1" parent="xlPOFBCF7ndjpaGlJcxO-9">
          <mxGeometry y="20" width="120" height="460" as="geometry" />
        </mxCell>
        <mxCell id="xlPOFBCF7ndjpaGlJcxO-54" value="Passwort ändern" style="rounded=1;arcSize=10;whiteSpace=wrap;html=1;align=center;" vertex="1" parent="xlPOFBCF7ndjpaGlJcxO-10">
          <mxGeometry x="30" y="100" width="60" height="30" as="geometry" />
        </mxCell>
        <mxCell id="xlPOFBCF7ndjpaGlJcxO-55" style="edgeStyle=orthogonalEdgeStyle;rounded=0;orthogonalLoop=1;jettySize=auto;html=1;exitX=0.5;exitY=1;exitDx=0;exitDy=0;entryX=0.5;entryY=0;entryDx=0;entryDy=0;" edge="1" parent="xlPOFBCF7ndjpaGlJcxO-10" source="xlPOFBCF7ndjpaGlJcxO-56" target="xlPOFBCF7ndjpaGlJcxO-54">
          <mxGeometry relative="1" as="geometry" />
        </mxCell>
        <mxCell id="xlPOFBCF7ndjpaGlJcxO-56" value="" style="ellipse;html=1;shape=startState;fillColor=#000000;strokeColor=#ff0000;" vertex="1" parent="xlPOFBCF7ndjpaGlJcxO-10">
          <mxGeometry x="50" y="30" width="20" height="20" as="geometry" />
        </mxCell>
        <mxCell id="xlPOFBCF7ndjpaGlJcxO-60" value="Fehler anzeigen" style="rounded=1;arcSize=10;whiteSpace=wrap;html=1;align=center;" vertex="1" parent="xlPOFBCF7ndjpaGlJcxO-10">
          <mxGeometry x="19.99999999999909" y="160" width="80" height="50" as="geometry" />
        </mxCell>
        <mxCell id="xlPOFBCF7ndjpaGlJcxO-72" value="bestätigen" style="rounded=1;arcSize=10;whiteSpace=wrap;html=1;align=center;" vertex="1" parent="xlPOFBCF7ndjpaGlJcxO-10">
          <mxGeometry x="19.99999999999909" y="240" width="80" height="50" as="geometry" />
        </mxCell>
        <mxCell id="xlPOFBCF7ndjpaGlJcxO-11" value="Server" style="swimlane;startSize=20;html=1;" vertex="1" parent="xlPOFBCF7ndjpaGlJcxO-9">
          <mxGeometry x="120" y="20" width="120" height="460" as="geometry" />
        </mxCell>
        <mxCell id="xlPOFBCF7ndjpaGlJcxO-63" style="edgeStyle=orthogonalEdgeStyle;rounded=0;orthogonalLoop=1;jettySize=auto;html=1;exitX=0.5;exitY=1;exitDx=0;exitDy=0;entryX=0.5;entryY=0;entryDx=0;entryDy=0;" edge="1" parent="xlPOFBCF7ndjpaGlJcxO-11" source="xlPOFBCF7ndjpaGlJcxO-57" target="xlPOFBCF7ndjpaGlJcxO-59">
          <mxGeometry relative="1" as="geometry" />
        </mxCell>
        <mxCell id="xlPOFBCF7ndjpaGlJcxO-57" value="Altes Passwort überprüfen" style="rounded=1;arcSize=10;whiteSpace=wrap;html=1;align=center;" vertex="1" parent="xlPOFBCF7ndjpaGlJcxO-11">
          <mxGeometry x="29.99999999999909" y="90" width="80" height="50" as="geometry" />
        </mxCell>
        <mxCell id="xlPOFBCF7ndjpaGlJcxO-58" value="Neues Passwort Speichern" style="rounded=1;arcSize=10;whiteSpace=wrap;html=1;align=center;" vertex="1" parent="xlPOFBCF7ndjpaGlJcxO-11">
          <mxGeometry x="29.99999999999909" y="240" width="80" height="50" as="geometry" />
        </mxCell>
        <mxCell id="xlPOFBCF7ndjpaGlJcxO-62" style="edgeStyle=orthogonalEdgeStyle;rounded=0;orthogonalLoop=1;jettySize=auto;html=1;exitX=0.5;exitY=1;exitDx=0;exitDy=0;entryX=0.5;entryY=0;entryDx=0;entryDy=0;" edge="1" parent="xlPOFBCF7ndjpaGlJcxO-11" source="xlPOFBCF7ndjpaGlJcxO-59" target="xlPOFBCF7ndjpaGlJcxO-58">
          <mxGeometry relative="1" as="geometry" />
        </mxCell>
        <mxCell id="xlPOFBCF7ndjpaGlJcxO-59" value="Ist richtig?" style="shape=rhombus;double=1;perimeter=rhombusPerimeter;whiteSpace=wrap;html=1;align=center;" vertex="1" parent="xlPOFBCF7ndjpaGlJcxO-11">
          <mxGeometry x="29.999999999999545" y="160" width="80" height="50" as="geometry" />
        </mxCell>
        <mxCell id="xlPOFBCF7ndjpaGlJcxO-66" value="Ja" style="text;html=1;align=center;verticalAlign=middle;resizable=0;points=[];autosize=1;strokeColor=none;fillColor=none;" vertex="1" parent="xlPOFBCF7ndjpaGlJcxO-11">
          <mxGeometry x="39.999999999999545" y="210" width="40" height="30" as="geometry" />
        </mxCell>
        <mxCell id="xlPOFBCF7ndjpaGlJcxO-65" value="Nein" style="text;html=1;align=center;verticalAlign=middle;resizable=0;points=[];autosize=1;strokeColor=none;fillColor=none;" vertex="1" parent="xlPOFBCF7ndjpaGlJcxO-11">
          <mxGeometry x="-10.000000000000455" y="160" width="50" height="30" as="geometry" />
        </mxCell>
        <mxCell id="xlPOFBCF7ndjpaGlJcxO-61" style="edgeStyle=orthogonalEdgeStyle;rounded=0;orthogonalLoop=1;jettySize=auto;html=1;exitX=0;exitY=0.5;exitDx=0;exitDy=0;entryX=1;entryY=0.5;entryDx=0;entryDy=0;" edge="1" parent="xlPOFBCF7ndjpaGlJcxO-9" source="xlPOFBCF7ndjpaGlJcxO-59" target="xlPOFBCF7ndjpaGlJcxO-60">
          <mxGeometry relative="1" as="geometry" />
        </mxCell>
        <mxCell id="xlPOFBCF7ndjpaGlJcxO-64" style="edgeStyle=orthogonalEdgeStyle;rounded=0;orthogonalLoop=1;jettySize=auto;html=1;exitX=1;exitY=0.5;exitDx=0;exitDy=0;entryX=0;entryY=0.5;entryDx=0;entryDy=0;" edge="1" parent="xlPOFBCF7ndjpaGlJcxO-9" source="xlPOFBCF7ndjpaGlJcxO-54" target="xlPOFBCF7ndjpaGlJcxO-57">
          <mxGeometry relative="1" as="geometry" />
        </mxCell>
        <mxCell id="xlPOFBCF7ndjpaGlJcxO-73" style="edgeStyle=orthogonalEdgeStyle;rounded=0;orthogonalLoop=1;jettySize=auto;html=1;exitX=0;exitY=0.5;exitDx=0;exitDy=0;entryX=1;entryY=0.5;entryDx=0;entryDy=0;" edge="1" parent="xlPOFBCF7ndjpaGlJcxO-9" source="xlPOFBCF7ndjpaGlJcxO-58" target="xlPOFBCF7ndjpaGlJcxO-72">
          <mxGeometry relative="1" as="geometry" />
        </mxCell>
      </root>
    </mxGraphModel>
  </diagram>
</mxfile>
